<svg width="100" height="100" viewBox="0 0 100 100" fill="none" xmlns="http://www.w3.org/2000/svg">
<rect width="100" height="100" rx="50" fill="white"/>
<path d="M46.6058 32C45.8889 32 45.3077 32.5877 45.3077 33.3126V41.1875C45.3077 41.9123 45.8889 42.5 46.6058 42.5H51.7981L51.854 42.5008C53.0047 42.5303 53.9321 43.4683 53.9608 44.6319L53.9615 44.6875V53.4375C53.9616 54.1624 54.5428 54.7501 55.2597 54.7501H60.4519L60.5078 54.7508C61.6583 54.7803 62.5855 55.7178 62.6146 56.8811L62.6154 56.9376V65.6874C62.6154 66.4123 63.1966 67 63.9135 67H71.7019C72.4187 67 73 66.4123 73 65.6874V57.8125C73 57.0877 72.4188 56.5 71.7019 56.5H66.4985C65.3274 56.494 64.3764 55.5473 64.3469 54.369L64.3462 54.3126V45.5626C64.3462 44.8377 63.7649 44.2501 63.048 44.2501H57.8558C56.6796 44.2501 55.7226 43.301 55.693 42.1189L55.6923 42.0626V33.3126C55.6923 32.5877 55.1111 32 54.3942 32H46.6058Z" fill="black"/>
<path d="M37.952 44.2501C37.2351 44.2501 36.6538 44.8377 36.6538 45.5626V53.4375C36.6539 54.1624 37.2351 54.7501 37.952 54.7501H43.1442L43.2001 54.7508C44.3506 54.7803 45.2778 55.7178 45.307 56.8811L45.3077 56.9376V65.6874C45.3077 66.4123 45.8889 67 46.6058 67H54.3942C55.1111 67 55.6923 66.4123 55.6923 65.6874V57.8125C55.6923 57.0877 55.1111 56.5 54.3942 56.5H49.1908C48.0197 56.494 47.0687 55.5473 47.0392 54.369L47.0385 54.3126V45.5626C47.0385 44.8377 46.4573 44.2501 45.7403 44.2501H37.952Z" fill="black"/>
<path d="M29.298 56.5C28.5811 56.5 28 57.0877 28 57.8125V65.6874C28 66.4123 28.5811 67 29.298 67H37.0865C37.8034 67 38.3846 66.4123 38.3846 65.6874V57.8125C38.3846 57.0877 37.8034 56.5 37.0865 56.5H29.298Z" fill="black"/>
</svg>
